<svg xmlns="http://www.w3.org/2000/svg" width="192" height="192" viewBox="0 0 192 192" role="img" aria-label="SkillSync icon">
  <defs>
    <linearGradient id="bg" x1="0" x2="1" y1="0" y2="1">
      <stop offset="0%" stop-color="#0ea5e9"/>
      <stop offset="100%" stop-color="#14b8a6"/>
    </linearGradient>
  </defs>
  <rect width="192" height="192" rx="42" fill="#050816"/>
  <rect x="18" y="18" width="156" height="156" rx="32" fill="url(#bg)" opacity="0.18"/>
  <path d="M56 118c0-23 17-40 40-40 14 0 24 5 33 15l-12 11c-6-7-12-10-21-10-14 0-24 10-24 24s10 24 24 24c10 0 16-3 22-10l11 10c-9 11-20 17-34 17-23 0-39-16-39-41z" fill="#e2e8f0"/>
  <circle cx="139" cy="63" r="9" fill="#67e8f9"/>
</svg>
